<mxfile host="65bd71144e">
    <diagram id="Urz4h6qU2XOXlGjxgygW" name="Page-1">
        <mxGraphModel dx="849" dy="536" grid="1" gridSize="10" guides="1" tooltips="1" connect="1" arrows="1" fold="1" page="1" pageScale="1" pageWidth="827" pageHeight="1169" math="0" shadow="0">
            <root>
                <mxCell id="0"/>
                <mxCell id="1" parent="0"/>
                <mxCell id="6" value="" style="edgeStyle=none;html=1;" edge="1" parent="1" source="3" target="5">
                    <mxGeometry relative="1" as="geometry"/>
                </mxCell>
                <mxCell id="3" value="C" style="shape=parallelogram;perimeter=parallelogramPerimeter;whiteSpace=wrap;html=1;fixedSize=1;rounded=1;fillColor=#1ba1e2;fontColor=#ffffff;strokeColor=#006EAF;" vertex="1" parent="1">
                    <mxGeometry x="345" y="150" width="115" height="40" as="geometry"/>
                </mxCell>
                <mxCell id="8" value="" style="edgeStyle=none;html=1;" edge="1" parent="1" source="5" target="7">
                    <mxGeometry relative="1" as="geometry"/>
                </mxCell>
                <mxCell id="5" value="N=0&lt;br&gt;D=2*C" style="rounded=1;whiteSpace=wrap;html=1;fillColor=#1ba1e2;fontColor=#ffffff;strokeColor=#006EAF;" vertex="1" parent="1">
                    <mxGeometry x="341.09" y="240" width="127.5" height="70" as="geometry"/>
                </mxCell>
                <mxCell id="10" value="" style="edgeStyle=none;html=1;" edge="1" parent="1" source="7" target="9">
                    <mxGeometry relative="1" as="geometry"/>
                </mxCell>
                <mxCell id="12" value="" style="edgeStyle=none;html=1;" edge="1" parent="1" source="7" target="11">
                    <mxGeometry relative="1" as="geometry">
                        <Array as="points">
                            <mxPoint x="620" y="388"/>
                        </Array>
                    </mxGeometry>
                </mxCell>
                <mxCell id="7" value="C &amp;lt;=D" style="rhombus;whiteSpace=wrap;html=1;rounded=1;fillColor=#f8cecc;gradientColor=#ea6b66;strokeColor=#b85450;" vertex="1" parent="1">
                    <mxGeometry x="355.63" y="340" width="93.75" height="95" as="geometry"/>
                </mxCell>
                <mxCell id="16" value="" style="edgeStyle=none;html=1;exitX=0.5;exitY=1;exitDx=0;exitDy=0;" edge="1" parent="1" source="9" target="7">
                    <mxGeometry relative="1" as="geometry">
                        <mxPoint x="390" y="660" as="sourcePoint"/>
                        <mxPoint x="268.5438107330667" y="602.0776214661332" as="targetPoint"/>
                        <Array as="points">
                            <mxPoint x="400" y="610"/>
                            <mxPoint x="260" y="610"/>
                            <mxPoint x="260" y="390"/>
                        </Array>
                    </mxGeometry>
                </mxCell>
                <mxCell id="9" value="C = 1.05*C&lt;br&gt;N = N+1" style="rounded=1;whiteSpace=wrap;html=1;fillColor=#f8cecc;gradientColor=#ea6b66;strokeColor=#b85450;" vertex="1" parent="1">
                    <mxGeometry x="339.995" y="510" width="120" height="60" as="geometry"/>
                </mxCell>
                <mxCell id="14" value="" style="edgeStyle=none;html=1;" edge="1" parent="1" source="11" target="13">
                    <mxGeometry relative="1" as="geometry"/>
                </mxCell>
                <mxCell id="11" value="N" style="shape=document;whiteSpace=wrap;html=1;boundedLbl=1;rounded=1;fillColor=#f8cecc;gradientColor=#ea6b66;strokeColor=#b85450;" vertex="1" parent="1">
                    <mxGeometry x="560.015" y="420" width="120" height="80" as="geometry"/>
                </mxCell>
                <mxCell id="13" value="FIN" style="whiteSpace=wrap;html=1;rounded=1;fillColor=#f8cecc;gradientColor=#ea6b66;strokeColor=#b85450;" vertex="1" parent="1">
                    <mxGeometry x="560.01" y="540" width="120" height="40" as="geometry"/>
                </mxCell>
                <mxCell id="18" value="" style="edgeStyle=none;html=1;" edge="1" parent="1" source="17" target="3">
                    <mxGeometry relative="1" as="geometry"/>
                </mxCell>
                <mxCell id="17" value="INICIO" style="rounded=1;whiteSpace=wrap;html=1;fillColor=#1ba1e2;fontColor=#ffffff;strokeColor=#006EAF;" vertex="1" parent="1">
                    <mxGeometry x="349.68" y="60" width="110.32" height="50" as="geometry"/>
                </mxCell>
            </root>
        </mxGraphModel>
    </diagram>
</mxfile>